<?xml version="1.0" encoding="UTF-8"?>
<svg width="1024px" height="1024px" viewBox="0 0 1024 1024" version="1.1" xmlns="http://www.w3.org/2000/svg" xmlns:xlink="http://www.w3.org/1999/xlink">
    <!-- Generator: Sketch 63.1 (92452) - https://sketch.com -->
    <title>面性鸡</title>
    <desc>Created with Sketch.</desc>
    <defs>
        <path d="M110.063693,333.003532 L188.408341,317.999042 L263.072534,333.003532 L285.95459,362 L263.072534,453 L394.005652,453 L534,463.326831 L635.892102,513.101562 L696,602.050786 L672,751.998187 L619.5,835.997773 L525,883.248611 L367.861961,897 L248.803638,838.159515 L174.407086,771.335889 L125.179687,635.023068 C119.067432,556.202612 116.011305,513.528224 116.011305,506.999905 C116.011305,500.471586 114.028767,462.138284 110.063693,392 L110.063693,333.003532 Z" id="path-1"></path>
        <filter x="-11.3%" y="-19.7%" width="132.8%" height="133.2%" filterUnits="objectBoundingBox" id="filter-2">
            <feOffset dx="30" dy="-18" in="SourceAlpha" result="shadowOffsetOuter1"></feOffset>
            <feGaussianBlur stdDeviation="27" in="shadowOffsetOuter1" result="shadowBlurOuter1"></feGaussianBlur>
            <feColorMatrix values="0 0 0 0 0.837494339   0 0 0 0 0.532063237   0 0 0 0 0.278600918  0 0 0 0.658790428 0" type="matrix" in="shadowBlurOuter1"></feColorMatrix>
        </filter>
    </defs>
    <g id="面性鸡" stroke="none" stroke-width="1" fill="none" fill-rule="evenodd">
        <polygon id="路径-320" fill="#FAE4A9" points="678.338648 64 635.892102 92.9976836 564.609375 132.767639 468.992952 174.99062 426.818154 229.785391 391.602314 287.5 394.005652 373 401.946051 453 696.126151 631.286412 761 605.420219 833.677461 569.782505 894 497.207427 914 435.589637 914 343 852.5 195 775.46875 132.767639 730.808594 124.186135 730.808594 92.9976836"></polygon>
        <g id="路径-319">
            <use fill="black" fill-opacity="1" filter="url(#filter-2)" xlink:href="#path-1"></use>
            <use fill="#FAE4A9" fill-rule="evenodd" xlink:href="#path-1"></use>
        </g>
        <path d="M934.154693,340.438158 C936.273899,356.841525 937.338648,373.503576 937.338648,390.208317 C937.338648,461.821729 910.893694,524.123905 863.888611,568.731309 C819.005454,611.325026 758.025438,635 693.338648,635 C685.054377,635 678.338648,628.284271 678.338648,620 C678.338648,611.715729 685.054377,605 693.338648,605 C750.437949,605 804.002815,584.203894 843.23767,546.970366 C884.239121,508.060355 907.338648,453.639736 907.338648,390.208317 C907.338648,374.784605 906.355944,359.406464 904.401965,344.282013 C903.340514,336.066025 909.140413,328.545174 917.356401,327.483722 C925.57239,326.422271 933.093241,332.22217 934.154693,340.438158 Z M536.414249,142.754372 C539.185258,150.561462 535.102707,159.136706 527.295617,161.907714 C478.60301,179.190419 443.34938,215.409591 424.199221,266.56891 C405.01231,317.826409 402.759742,382.264834 418.22798,452.040375 C420.020955,460.128291 414.917897,468.138336 406.829981,469.931312 C398.742064,471.724287 390.732019,466.621229 388.939044,458.533312 C354.487707,303.127073 402.71354,174.292595 517.260906,133.635739 C525.067997,130.86473 533.64324,134.947281 536.414249,142.754372 Z M729.656086,111.310224 C795.94983,125.006374 849.530215,161.712421 886.157117,215.544831 C890.817261,222.39408 889.042641,231.724286 882.193392,236.38443 C875.344143,241.044573 866.013937,239.269953 861.353793,232.420704 C829.362709,185.401791 783.054496,153.426625 725.338781,141.05856 L723.586331,140.689776 C715.473392,139.01366 710.255316,131.078062 711.931432,122.965123 C713.607549,114.852183 721.543146,109.634108 729.656086,111.310224 Z" id="形状" fill="#F7B500" fill-rule="nonzero"></path>
        <path d="M169.656752,303.874081 C144.859555,305.961624 123.612495,311.636767 108.841449,321.036838 C89.6611573,333.242885 81.4727697,351.957776 88.4306441,373.442238 L88.6461292,374.094126 C97.5612146,400.52911 103.594384,432.330423 103.760252,465.209481 L103.763761,466.599366 C103.763761,555.477725 114.751895,650.144402 130.180165,697.837008 C152.502958,766.842291 190.696234,818.941891 242.314299,854.916713 C286.822279,885.936214 340.219211,904.215522 399.622628,911.1161 L401.598308,911.340173 L401.772251,911.356596 C503.872981,920.396367 582.513554,891.829245 634.867939,832.8304 C679.233301,782.83449 702,713.17238 702,640.747603 C702,511.015588 600.735275,440.248649 439.193371,440.248649 L423.834426,440.235053 C393.973192,440.184385 357.160024,439.99208 313.398677,439.658112 L286.246,439.44 L286.767491,437.95413 C306.235848,382.044528 308.904605,347.069433 291.159626,329.756908 C270.598939,309.697296 218.118761,299.794324 169.656752,303.874081 Z M270.209693,351.230155 C271.073983,352.073381 271.947531,353.990899 272.501284,357.424773 C273.266659,362.170935 273.146533,368.660137 272.013547,376.769001 L271.834188,378.009803 C269.218695,395.52829 262.215201,419.229845 250.793539,448.85985 C247.026027,458.633506 254.181837,469.16114 264.656081,469.254436 L304.532384,469.590196 C358.799458,470.018354 402.838566,470.237721 436.655191,470.24825 L439.191018,470.248648 C510.443351,470.248649 568.831415,484.880622 609.011069,512.959415 C650.275669,541.7964 672,584.430401 672,640.747603 C672,706.26467 651.553008,768.828883 612.428853,812.918408 L611.04748,814.459222 C565.692832,864.532651 497.818188,889.120937 407.199191,881.71035 L404.579,881.487 L404.765719,881.508362 C349.317757,875.294368 300.014804,858.563502 259.467628,830.304453 C213.266464,798.104901 179.046202,751.424904 158.723797,688.603315 C144.557238,644.81097 133.977134,554.4422 133.766949,469.18141 L133.763761,466.599366 C133.763761,430.17635 127.262684,395.127591 117.456799,365.652795 L117.073087,364.507256 C114.43354,356.68048 116.59065,351.664991 124.948096,346.346439 C134.950785,339.980879 151.783314,335.484868 172.173389,333.768337 C212.772804,330.35049 257.449521,338.780954 270.209693,351.230155 Z" id="椭圆形备份" fill="#F7B500" fill-rule="nonzero"></path>
        <path d="M316.883495,516.092089 C365.454706,483.148519 453.163347,484.370625 581.278202,517.498056 C589.298681,519.57196 594.119332,527.755073 592.045429,535.775552 C589.971525,543.79603 581.788412,548.616682 573.767933,546.542778 C453.408902,515.420817 372.971037,514.300019 333.723124,540.920035 C311.075467,556.280876 314.973223,610.503397 345.680794,670.233421 C378.951069,734.948221 431.728123,784.260266 482.233208,792.84699 C518.315582,798.981608 546.696075,791.936752 568.773864,771.915974 C591.743436,751.086502 608.698964,715.539141 619.032492,664.971119 C620.691098,656.854582 628.615418,651.619395 636.731955,653.278001 C644.848492,654.936608 650.083679,662.860928 648.425072,670.977465 C625.119762,785.024046 567.036626,837.695513 477.204854,822.422582 C445.136384,816.970397 413.701133,799.445206 384.933214,772.566007 C359.10397,748.432548 336.164638,717.337004 319.000211,683.950072 C302.147649,651.169755 291.687235,617.746981 289.631025,589.142606 C287.277644,556.404221 295.896729,530.326426 316.883495,516.092089 Z" id="路径-128" fill="#F7B500" fill-rule="nonzero" transform="translate(468.992952, 658.507744) rotate(-10.000000) translate(-468.992952, -658.507744) "></path>
        <path d="M412.097956,497.035296 C416.992211,494.476369 423.03421,496.369526 425.593137,501.263781 C428.107171,506.072172 426.323964,511.988388 421.619466,514.621091 L421.364652,514.758962 C412.343222,519.475755 408.307264,530.571976 410.226496,550.168861 C412.075581,569.049491 425.291337,582.673882 451.824867,591.537172 C459.817364,594.206995 461.097916,604.920408 454.075642,609.426728 L453.838489,609.57462 C442.881425,616.213379 437.754121,628.083113 438.663232,646.79403 C439.306794,660.039528 447.55661,674.344741 459.908775,683.488902 C472.725743,692.977151 487.627027,695.437802 501.471035,689.450983 L501.947991,689.24119 C507.882589,686.586716 514.73246,690.211768 515.875314,696.611735 C522.339941,732.813537 545.430042,748.916002 588.710257,746.442317 C594.224106,746.127172 598.949439,750.341555 599.264583,755.855403 C599.579728,761.369252 595.365345,766.094585 589.851496,766.40973 C541.699043,769.161888 510.526774,750.693043 499.0209,712.151024 L498.769,711.289 L498.670347,711.312252 C481.356849,715.191406 463.610076,710.895749 448.56491,699.971167 L448.008922,699.563525 C431.011271,686.980366 419.633608,667.251453 418.686797,647.76463 C417.831747,630.16636 421.462266,615.683833 429.646111,604.84499 L430.087,604.27 L429.698429,604.081257 C406.347074,592.578107 392.891573,575.44126 390.407702,552.943718 L390.321726,552.118246 C387.689299,525.239075 394.624803,506.171013 412.097956,497.035296 Z" id="路径-132" fill="#F7B500" fill-rule="nonzero" transform="translate(494.531098, 631.286412) rotate(-10.000000) translate(-494.531098, -631.286412) "></path>
        <path d="M153.706694,511.089095 C159.645288,505.486648 168.951625,505.674005 174.66136,511.44832 L174.910905,511.706694 L224.910905,564.706694 C230.595741,570.73262 230.319233,580.226069 224.293306,585.910905 C218.354712,591.513352 209.048375,591.325995 203.33864,585.55168 L203.089095,585.293306 L153.089095,532.293306 C147.404259,526.26738 147.680767,516.773931 153.706694,511.089095 Z" id="路径-129" fill="#FA6400" fill-rule="nonzero"></path>
        <path d="M201.398675,511.881201 C206.987134,505.765787 216.474997,505.338606 222.59041,510.927064 C228.617194,516.434531 229.119428,525.729194 223.783733,531.850809 L223.544546,532.118799 L175.418006,584.783356 C169.829547,590.89877 160.341685,591.325951 154.226271,585.737492 C148.199487,580.230026 147.697253,570.935363 153.032948,564.813748 L153.272135,564.545758 L201.398675,511.881201 Z" id="路径-130" fill="#FA6400" fill-rule="nonzero"></path>
        <path d="M228.209319,843.246167 C232.491643,836.154562 241.712034,833.877191 248.803638,838.159515 C255.798097,842.383177 258.109317,851.410542 254.062588,858.461217 L253.89029,858.753833 L196.523754,953.753833 C192.24143,960.845438 183.021039,963.122809 175.929435,958.840485 C168.934976,954.616823 166.623756,945.589458 170.670485,938.538783 L170.842783,938.246167 L228.209319,843.246167 Z" id="路径-74备份-4" fill="#F7B500" fill-rule="nonzero"></path>
        <path d="M218.473506,335.522197 C219.289674,330.059989 224.379303,326.29363 229.841511,327.109798 C235.211139,327.912132 238.941918,332.844293 238.291475,338.200403 L238.253911,338.477803 L224.208348,432.477803 C223.39218,437.940011 218.302551,441.70637 212.840343,440.890202 C207.470715,440.087868 203.739936,435.155707 204.390379,429.799597 L204.427944,429.522197 L218.473506,335.522197 Z" id="路径-74备份-6" fill="#F7B500" fill-rule="nonzero"></path>
        <path d="M151.155997,318.068127 C156.548249,317.435462 161.441021,321.21775 162.216729,326.557158 L162.253162,326.834708 L174.338001,429.834708 C174.981574,435.31993 171.056642,440.2883 165.57142,440.931873 C160.179168,441.564538 155.286396,437.78225 154.510688,432.442842 L154.474255,432.165292 L142.389416,329.165292 C141.745843,323.68007 145.670775,318.7117 151.155997,318.068127 Z" id="路径-74备份-7" fill="#F7B500" fill-rule="nonzero"></path>
        <path d="M550.39924,824.47103 C557.222694,819.979204 566.36291,821.780724 570.983408,828.466862 L571.175931,828.752278 L650.17098,948.752278 C654.726071,955.671837 652.809291,964.973879 645.889732,969.52897 C639.066278,974.020796 629.926062,972.219276 625.305564,965.533138 L625.11304,965.247722 L546.117991,845.247722 C541.5629,838.328163 543.479681,829.026121 550.39924,824.47103 Z" id="路径-74备份-5" fill="#F7B500" fill-rule="nonzero"></path>
        <path d="M852.5,210 C903.034055,210 944,250.742088 944,301 C944,351.257912 903.034055,392 852.5,392 C801.965945,392 761,351.257912 761,301 C761,250.742088 801.965945,210 852.5,210 Z M852.5,240 C818.497801,240 791,267.34754 791,301 C791,334.65246 818.497801,362 852.5,362 C886.502199,362 914,334.65246 914,301 C914,267.34754 886.502199,240 852.5,240 Z" id="椭圆形备份-5" fill="#F7B500" fill-rule="nonzero"></path>
        <path d="M657.101417,66.8504641 C662.176354,53.0483647 674.529818,46.4757061 688.562255,48.302502 C698.716097,49.6243676 709.369152,55.2268946 718.534479,63.4480571 C727.761296,71.7243751 734.980203,82.2085355 738.536609,93.2945094 C742.88762,106.857411 741.602868,120.708517 733.792726,132.692092 C715.282086,161.094092 690.933697,171.22675 664.782677,158.896247 C657.289581,155.363167 654.079353,146.424685 657.612433,138.931589 C661.098405,131.5384 669.846597,128.314632 677.276613,131.623612 L677.577092,131.761344 C683.176244,134.401408 687.600937,134.630602 691.877804,132.85077 C697.088077,130.682499 702.792504,125.313675 708.659388,116.31176 C713.842294,108.359312 709.869835,95.9764237 698.502762,85.7803284 C693.774719,81.5393437 688.735058,78.7989728 685.242011,78.1399959 L684.917,78.084 L684.642115,78.7509741 C673.918446,103.758151 626.250084,128.36677 537.456667,158.599748 L534.697361,159.536589 C526.850614,162.193223 518.335941,157.985806 515.679306,150.139059 C513.022671,142.292311 517.230089,133.777638 525.076836,131.121003 L528.908482,129.818125 C569.49172,115.958254 600.868732,103.299259 622.915786,91.9352495 L623.601719,91.5805459 C634.551554,85.8998433 643.010238,80.6172567 648.910223,75.8491168 L649.640065,75.2511052 C653.914526,71.699105 656.310287,68.8043407 657.044107,66.9984272 L657.101417,66.8504641 Z" id="路径-131" fill="#F7B500" fill-rule="nonzero"></path>
        <path d="M813.364769,396 C769.055752,396 735.756767,418.08644 715.469358,460.482483 C713.246853,465.127012 713.56185,470.58688 716.303747,474.944996 C746.884718,523.552007 778.907746,549 813.364769,549 C829.684231,549 843.057861,538.650263 852.338271,522.126689 C859.905295,508.653761 864.64124,491.150552 865.750337,473.437378 C866.917995,454.788931 864.040682,437.032606 856.900771,423.299467 C848.003821,406.186781 832.836125,396 813.364769,396 Z M813.364769,426 C821.076146,426 826.325415,429.525463 830.283219,437.138033 C834.645124,445.527864 836.66041,457.964489 835.808973,471.562622 C834.136741,498.269508 822.493529,519 813.364769,519 L812.710353,518.994224 C792.619299,518.639864 770.479413,501.975285 747.063107,467.218089 L746.325,466.116 L746.375796,466.026032 C761.677571,438.88081 783.487703,426 813.364769,426 Z" id="路径-20" fill="#FF7E4C" fill-rule="nonzero" transform="translate(790.001231, 472.500000) rotate(-180.000000) translate(-790.001231, -472.500000) "></path>
        <path d="M841.968203,473.339426 C847.491023,473.321916 851.982389,477.784811 851.999999,483.30763 C852.017213,488.736843 847.704614,493.169269 842.311688,493.334644 L842.031797,493.339376 L741.031797,493.660574 C735.508977,493.678084 731.017611,489.215189 730.999999,483.69237 C730.982787,478.263157 735.295386,473.830731 740.688312,473.665356 L740.968203,473.660624 L841.968203,473.339426 Z" id="路径-27" fill="#FF7E4C" fill-rule="nonzero"></path>
        <path d="M619.5,195 C550.602382,195 495,252.887411 495,324 C495,395.112589 550.602382,453 619.5,453 C688.397618,453 744,395.112589 744,324 C744,252.887411 688.397618,195 619.5,195 Z M619.5,225 C671.552742,225 714,269.191666 714,324 C714,378.808334 671.552742,423 619.5,423 C567.447258,423 525,378.808334 525,324 C525,269.191666 567.447258,225 619.5,225 Z" id="椭圆形备份-12" fill="#F7B500" fill-rule="nonzero"></path>
        <circle id="椭圆形备份-24" stroke="#FCFCFC" stroke-width="21" fill="#5A5A5A" cx="621" cy="324" r="85.5"></circle>
        <circle id="椭圆形备份-25" stroke="#FCFCFC" stroke-width="21" fill="#5A5A5A" cx="852" cy="301" r="52.5"></circle>
    </g>
</svg>